<svg fill="#ffffff" xmlns="http://www.w3.org/2000/svg"  viewBox="0 0 64 64" width="48px" height="48px"><path d="M57,17.114c-1.32,1.973-2.991,3.707-4.916,5.097c0.018,0.423,0.028,0.847,0.028,1.274c0,13.013-9.902,28.018-28.016,28.018	c-5.562,0-12.81-1.948-15.095-4.423c0.772,0.092,1.556,0.138,2.35,0.138c4.615,0,8.861-1.575,12.23-4.216	c-4.309-0.079-7.946-2.928-9.199-6.84c1.96,0.308,4.447-0.17,4.447-0.17s-7.7-1.322-7.899-9.779c2.226,1.291,4.46,1.231,4.46,1.231	s-4.441-2.734-4.379-8.195c0.037-3.221,1.331-4.953,1.331-4.953c8.414,10.361,20.298,10.29,20.298,10.29s-0.255-1.471-0.255-2.243	c0-5.437,4.408-9.847,9.847-9.847c2.832,0,5.391,1.196,7.187,3.111c2.245-0.443,4.353-1.263,6.255-2.391	c-0.859,3.44-4.329,5.448-4.329,5.448S54.314,18.335,57,17.114z M24.141,47.503c8.334,0.376,23.156-6.394,23.971-24.018	c0.007-0.16,0.032-0.447,0.017-0.706c-0.02-0.334,0.146-0.556,0.285-0.702c0.228-0.241,0.475-0.534,0.71-0.971	c0.199-0.369,0.077-0.526-0.169-0.569c-0.167-0.029-0.34-0.071-0.532-0.113c-0.343-0.075-0.492-0.396-0.33-0.722	c0.11-0.221,0.257-0.527,0.365-0.846c0.107-0.314-0.032-0.386-0.271-0.344c-0.198,0.034-0.427,0.077-0.632,0.115	c-0.318,0.059-0.647-0.005-0.958-0.362c-1.206-1.388-2.512-1.768-4.366-1.768c-3.246,0-5.847,2.623-5.847,5.847	c0,0.888,0.229,1.955,0.389,2.986c0.299,1.925-0.553,3.741-3.504,3.511c-4.335-0.338-11.005-1.287-16.082-5.034	c0.505,0.999,1.718,2.543,2.681,3.702c0.748,0.9,0.515,2.294-0.452,2.748c-0.485,0.228-1.073,0.418-1.749,0.541	c1.774,1.435,3.811,2.365,5.37,3.027c1.954,0.829,2.492,2.176,1.292,3.518c-0.431,0.482-0.988,0.969-1.708,1.402	c0.866,0.598,2.318,1.099,3.979,1.369c1.677,0.273,2.78,2.114,1.056,4.398C26.817,45.624,25.617,46.692,24.141,47.503z"/></svg>